<?xml version="1.0" encoding="UTF-8"?>
<svg xmlns="http://www.w3.org/2000/svg" viewBox="0 0 19.8 18.42">
  <defs>
    <style>
      .san-cls1 {
        fill: currentColor;
      }
    </style>
  </defs>
  <g id="Scritte">
    <path class="san-cls1" d="M18.01,1.81C16.88,.68,15.38,.04,13.78,0c-1.42-.04-2.78,.41-3.89,1.25C8.78,.41,7.43-.03,6.01,0,4.41,.04,2.9,.68,1.78,1.81,.56,3.02-.04,4.41,0,5.92c.1,3.88,4.39,7.72,7.51,10.52,.73,.66,1.42,1.28,1.94,1.8,.12,.12,.28,.18,.44,.18s.32-.06,.44-.18c.57-.57,1.29-1.22,2.06-1.92,1.57-1.42,3.36-3.04,4.79-4.77,1.72-2.08,2.58-3.92,2.62-5.63,.04-1.5-.56-2.89-1.79-4.11Zm.55,4.08c-.04,1.42-.8,3.02-2.34,4.88-1.38,1.67-3.12,3.25-4.66,4.64-.6,.54-1.17,1.05-1.67,1.53-.46-.44-.99-.92-1.55-1.42C5.38,12.86,1.33,9.23,1.24,5.88c-.03-1.17,.43-2.22,1.41-3.2,.97-.97,2.23-1.45,3.5-1.45,1.19,0,2.38,.43,3.32,1.28,.24,.21,.6,.21,.83,0,1.96-1.78,4.96-1.7,6.83,.17,.99,.99,1.45,2.04,1.43,3.2Zm-4.9,.76h-1.71v-1.71c0-.51-.41-.92-.92-.92h-2.27c-.51,0-.92,.41-.92,.92v1.71h-1.71c-.51,0-.92,.41-.92,.92v2.27c0,.51,.41,.92,.92,.92h1.71v1.71c0,.51,.41,.92,.92,.92h2.27c.51,0,.92-.41,.92-.92v-1.71h1.71c.51,0,.92-.41,.92-.92v-2.27c0-.51-.41-.92-.92-.92Zm-.32,2.86h-2.63v2.63h-1.62v-2.63h-2.63v-1.62h2.63v-2.63h1.62v2.63h2.63v1.62h0Z"/>
  </g>
</svg>