<?xml version="1.0" encoding="UTF-8"?>
<svg xmlns="http://www.w3.org/2000/svg" viewBox="0 0 15.83 20.16">
  <defs>
    <style>
      .polcom-cls1 {
        fill: currentColor;
      }
    </style>
  </defs>
  <g id="Scritte">
    <g>
      <path class="polcom-cls1" d="M0,19.84c0,.18,.14,.32,.32,.32H15.51c.18,0,.32-.14,.32-.32v-4.28c0-1.13-.64-2.03-1.64-2.28l-3.77-.88s-.06-.04-.1-.05l-.55-.13c.18-.1,.34-.21,.5-.33,.69,.11,1.38,.27,2.06,.49,.03,0,.06,.02,.1,.02,.07,0,.13-.02,.19-.06,.08-.06,.13-.16,.13-.26v-3.06c.44-.26,.74-.73,.74-1.27s-.3-1.01-.73-1.27v-1.35s0-.02,0-.04h0s0-.97,0-.97h0s.02-.05,.03-.06l.74-.58c.43-.28,.48-.62,.47-.79-.02-.29-.2-.55-.51-.7C10.72,.68,9.22,0,7.89,0c-1.32,.01-2.82,.68-5.58,1.97-.3,.15-.48,.41-.5,.7,0,.18,.04,.51,.45,.78l.76,.59s.03,.05,.03,.06c0,0,0,0,0,0,0,0,0,0,0,0v.97s0,0,0,0v1.4c-.41,.26-.69,.72-.69,1.24s.28,.99,.7,1.25v3.08c0,.1,.05,.19,.12,.25,.06,.04,.12,.07,.19,.07,.03,0,.06,0,.08-.01,.75-.2,1.45-.35,2.14-.46,.15,.11,.3,.21,.46,.31l-4.47,1.06c-.48,.14-1.59,.64-1.59,2.28v4.28Zm6.8-.34l.7-1.82h.89l.72,1.82h-2.31Zm.69-5.67s.04,.01,.06,.01c.1,.02,.19,.03,.29,.03h0s0,0,.01,0h.13s.07,0,.11-.01c.05,0,.1,0,.15-.02,.06,0,.12-.02,.18-.04l-.46,1.14-.5-1.13s.02,0,.04,0h0Zm-.48-1.07h1.8c-.18,.29-.49,.48-.84,.48h-.13c-.05,0-.11,0-.16-.01-.04,0-.07-.02-.11-.03-.01,0-.02,0-.04-.01-.22-.08-.41-.23-.53-.43h0Zm.96,3.34l.6,.34-.17,.43h-.89l-.16-.41,.62-.36Zm2.13,.69l.42-3.72,3.52,.82c.7,.18,1.15,.83,1.15,1.66v3.97h-5.4l-.88-2.25,.21-.53,.5,.29s.1,.04,.16,.04c.05,0,.1-.01,.14-.03,.1-.05,.16-.14,.17-.25h0Zm-.21-3.87l-.37,3.31-1.14-.66,.09-.23,1.08-2.5,.34,.08Zm2.2-1.29c-.42-.12-.84-.22-1.26-.3,.05-.06,.09-.12,.14-.18,.02-.02,.04-.05,.06-.08,.04-.06,.08-.12,.12-.18,.02-.03,.04-.07,.06-.1,.03-.06,.07-.12,.1-.18,.02-.04,.03-.07,.05-.11,.05-.1,.09-.2,.13-.31,.02-.05,.04-.1,.06-.16,.02-.05,.03-.1,.05-.16,.02-.06,.03-.12,.05-.18,.01-.05,.02-.1,.03-.15,.01-.08,.03-.16,.04-.23,0-.03,0-.07,.01-.1v-.02h.27s.07,0,.1,0v2.43ZM3.7,6.15h.36s.01,.01,.02,.02v.09h-.25s-.09,0-.13,0v-.11Zm-.01-1.52v-.37s.06-.02,.09-.04c.06-.02,.12-.04,.18-.06,.07-.02,.14-.04,.21-.07,.07-.02,.14-.04,.21-.06,.07-.02,.15-.04,.22-.05,.08-.02,.16-.04,.24-.05,.07-.02,.15-.03,.23-.04,.09-.02,.18-.03,.27-.05,.08-.01,.16-.02,.24-.03,.1-.01,.19-.03,.29-.04,.08,0,.16-.02,.24-.02,.1-.01,.21-.02,.31-.03,.08,0,.16-.01,.24-.02,.11,0,.22-.02,.33-.02,.08,0,.16,0,.25,0,.11,0,.23,0,.34,0,.08,0,.17,0,.25,0,.12,0,.23,0,.35,0,.08,0,.16,0,.24,0,.21,0,.42,.02,.63,.03,.11,0,.21,.01,.32,.02,.09,0,.18,.02,.27,.03,.11,.01,.22,.02,.33,.04,.09,.01,.17,.03,.26,.04,.11,.02,.22,.03,.32,.05,.08,.02,.17,.03,.25,.05,.11,.02,.21,.04,.31,.07,.08,.02,.16,.04,.24,.06,.1,.03,.2,.05,.3,.08,.08,.02,.15,.05,.23,.07,.07,.02,.13,.04,.2,.07v.35c-1.07-.32-2.64-.47-4.21-.47-1.57,0-3.14,.16-4.21,.48h0Zm.3,.61c2.29-.57,5.49-.56,7.81,0-.16,.14-.32,.28-.48,.41,0,0-.02,.01-.03,.02-.16,.12-.32,.24-.48,.35-.02,.01-.04,.02-.06,.04-.13,.09-.26,.17-.4,.25-.06,.04-.13,.07-.19,.1-.08,.05-.17,.09-.26,.13-.08,.04-.16,.07-.24,.11-.06,.03-.13,.05-.19,.08-.1,.04-.19,.07-.29,.1-.04,.01-.08,.02-.12,.03-.66,.19-1.32,.22-1.98,.1-.02,0-.03,0-.05,0-.12-.02-.23-.05-.35-.08-.04-.01-.07-.02-.11-.03-.1-.03-.2-.06-.3-.1-.06-.02-.12-.05-.18-.07-.08-.03-.16-.07-.25-.11-.13-.06-.26-.13-.38-.2-.02,0-.04-.02-.05-.03-.15-.09-.3-.18-.45-.29-.04-.03-.08-.06-.12-.09-.12-.09-.24-.17-.35-.27-.01-.01-.03-.02-.04-.04-.15-.12-.3-.25-.45-.4h0Zm8.11,.91v.11s-.07,0-.1,0h-.25v-.1h.35Zm.74,1.58c0,.38-.26,.7-.6,.8-.02,0-.05,.02-.08,.02-.05,0-.11,.02-.16,.02h-.25v-1.67h.25c.06,0,.11,0,.16,.02,.03,0,.05,.01,.08,.02,.35,.1,.6,.42,.6,.8h0ZM2.63,2.93c-.12-.07-.19-.16-.18-.23,0-.06,.06-.12,.14-.16C5.26,1.3,6.71,.64,7.89,.64c1.19,0,2.64,.66,5.3,1.91,.09,.04,.15,.11,.15,.17,0,.06-.07,.15-.2,.24l-.77,.6s-.08,.07-.11,.11c-.05-.02-.11-.03-.16-.05-.07-.02-.15-.05-.22-.07-.11-.03-.22-.06-.34-.09-.07-.02-.15-.04-.22-.06-.12-.03-.25-.06-.38-.08-.07-.01-.13-.03-.2-.04-.16-.03-.33-.06-.5-.08-.03,0-.07-.01-.1-.02-.21-.03-.41-.05-.62-.07-.04,0-.08,0-.12,0-.17-.02-.33-.03-.5-.04-.07,0-.13,0-.2,0-.14,0-.28-.01-.43-.02-.07,0-.15,0-.22,0-.08,0-.16,0-.24,0-.05,0-.1,0-.15,0-.09,0-.18,0-.27,0-.12,0-.24,0-.36,.01-.09,0-.18,0-.27,.01-.12,0-.23,.02-.35,.02-.09,0-.18,.02-.26,.02-.11,.01-.22,.02-.33,.04-.09,0-.17,.02-.26,.03-.11,.01-.21,.03-.31,.05-.08,.01-.17,.03-.25,.04-.1,.02-.19,.04-.29,.06-.08,.02-.16,.03-.23,.05-.09,.02-.18,.04-.26,.07-.07,.02-.15,.04-.22,.06-.08,.02-.16,.05-.24,.07-.07,.02-.13,.04-.2,.07-.02,0-.04,.01-.06,.02-.03-.04-.07-.07-.1-.1l-.78-.61Zm.88,5.57c-.3-.13-.51-.42-.51-.77s.21-.64,.51-.77h0c.1-.04,.21-.07,.33-.07h.25v1.67h-.25c-.11,0-.22-.02-.33-.07h0Zm.2,3.15v-2.45s.09,0,.13,0h.26v.02s.01,.07,.02,.1c0,.08,.02,.16,.04,.24,0,.05,.02,.09,.03,.14,.02,.07,.03,.13,.05,.2,.01,.05,.03,.1,.04,.14,.02,.07,.05,.13,.07,.19,.03,.07,.06,.15,.09,.22,.03,.06,.06,.12,.09,.18,.03,.05,.06,.1,.09,.16,.03,.04,.05,.09,.08,.13,.03,.05,.07,.11,.11,.16,.03,.04,.05,.07,.08,.11,.04,.05,.08,.11,.13,.16,0,0,0,0,.01,.02-.43,.08-.87,.17-1.32,.29h0Zm2.2-.31s0,0,0,0c-.18-.15-.34-.32-.49-.5,0,0-.01-.02-.02-.03-.06-.08-.12-.16-.17-.24-.01-.02-.02-.04-.04-.06-.05-.07-.09-.15-.13-.23-.01-.02-.02-.05-.04-.08-.03-.07-.07-.15-.09-.23-.01-.03-.02-.06-.03-.09-.03-.07-.05-.15-.07-.23,0-.03-.02-.07-.03-.1-.02-.08-.03-.15-.04-.23,0-.04-.01-.07-.02-.11,0-.08-.01-.16-.02-.24,0-.04,0-.08,0-.12v-2.22s.06,.03,.09,.05c.05,.03,.1,.06,.15,.09,.12,.07,.24,.14,.36,.21,.06,.03,.12,.07,.18,.1,.14,.07,.28,.13,.42,.19,.06,.03,.13,.05,.19,.07-.04,.05-.07,.12-.07,.19v.75c0,.18,.14,.32,.32,.32s.32-.14,.32-.32v-.74s0,0,0-.02c.38,.09,.75,.14,1.13,.15h.05c.28,0,.56-.03,.84-.08,0,0,.02,0,.03,0,.15-.03,.29-.05,.44-.09,0,.02,0,.03,0,.05v.75c0,.18,.14,.32,.32,.32s.32-.14,.32-.32v-.75c0-.08-.03-.16-.09-.22,.04-.02,.09-.04,.13-.06,.08-.03,.17-.07,.26-.11,.08-.03,.15-.07,.23-.11,.16-.08,.32-.17,.48-.27,.05-.03,.11-.07,.16-.1s.11-.06,.16-.1v2.28s0,.08,0,.12c0,.08,0,.15-.01,.23,0,.03-.01,.07-.02,.1-.01,.08-.02,.16-.04,.23,0,.03-.01,.06-.02,.08-.02,.08-.04,.16-.07,.24,0,.02-.02,.04-.02,.07-.03,.08-.06,.17-.1,.25,0,.02-.02,.04-.03,.05-.04,.08-.09,.17-.13,.25,0,.01-.02,.03-.02,.04-.05,.09-.11,.17-.17,.25,0,0-.01,.02-.02,.02-.14,.18-.3,.35-.47,.49,0,0,0,0,0,.01-.56,.46-1.27,.75-2.05,.75-.29,0-.56-.04-.83-.11-.14-.04-.28-.08-.42-.14,0,0,0,0,0,0-.28-.12-.53-.27-.76-.46h0Zm.41,1.49l.54,1.2,.67,1.56-1.14,.66-.38-3.34,.31-.08ZM.64,18.95c.72-.06,1.29-.65,1.29-1.39v-1.45c0-.18-.14-.32-.32-.32H.64v-.24c0-1.16,.71-1.54,1.12-1.66l3.61-.86,.42,3.75c.01,.11,.08,.2,.17,.25,.05,.02,.09,.03,.14,.03,.06,0,.11-.01,.16-.04l.5-.29,.2,.53-.86,2.25H.64v-.56Zm.02-.64v-1.89h.63v1.14c0,.37-.27,.69-.63,.75H.66Z"/>
      <path class="polcom-cls1" d="M7.89,2.69c.53,0,.96-.43,.96-.96s-.43-.96-.96-.96-.96,.43-.96,.96c0,.53,.43,.96,.96,.96Zm0-1.29c.18,0,.33,.15,.33,.33s-.15,.33-.33,.33-.33-.15-.33-.33,.15-.33,.33-.33Z"/>
      <path class="polcom-cls1" d="M11.36,17.67l-.16,.93c-.02,.12,.03,.24,.13,.31,.06,.04,.12,.06,.19,.06,.05,0,.1-.01,.15-.04l.84-.44,.84,.44c.11,.06,.24,.05,.33-.02,.1-.07,.15-.19,.13-.31l-.16-.93,.67-.66c.09-.08,.12-.21,.08-.33-.04-.12-.14-.2-.26-.22l-.93-.14-.42-.84c-.11-.22-.46-.22-.57,0l-.42,.84-.93,.14c-.12,.02-.22,.1-.26,.22-.04,.12,0,.24,.08,.33l.67,.66Zm.7-.74c.1-.02,.19-.08,.24-.17l.21-.42,.21,.42c.05,.09,.13,.16,.24,.17l.47,.07-.34,.33c-.07,.07-.11,.18-.09,.28l.08,.47-.42-.22c-.09-.05-.2-.05-.29,0l-.42,.22,.08-.47c.02-.1-.02-.21-.09-.28l-.34-.33,.47-.07Z"/>
      <path class="polcom-cls1" d="M7.9,11.12c.74,0,1.57-.35,1.85-1.13,.06-.17-.03-.35-.2-.41-.17-.06-.35,.03-.41,.2-.18,.51-.78,.73-1.3,.71-.43-.01-.99-.2-1.13-.69-.05-.17-.22-.27-.39-.22-.17,.05-.27,.22-.22,.39,.19,.67,.87,1.13,1.72,1.15,.02,0,.05,0,.07,0h0Z"/>
    </g>
  </g>
</svg>