<?xml version="1.0" encoding="UTF-8"?>
<svg xmlns="http://www.w3.org/2000/svg" viewBox="0 0 19.6 19.6">
  <defs>
    <style>
      .laveco-cls1 {
        fill: currentColor;
        stroke: currentColor;
        stroke-miterlimit: 10;
        stroke-width: .4px;
      }
    </style>
  </defs>
  <g id="Scritte">
    <g>
      <path class="laveco-cls1" d="M12.84,18.63c-.23,.23-.57,.34-.89,.28l-7.59-1.36s-.03,0-.04,0H.44c-.13,0-.24,.11-.24,.24s.11,.24,.24,.24h3.85l7.57,1.35c.09,.02,.18,.02,.26,.02,.39,0,.77-.15,1.06-.43l5.78-5.74c.3-.3,.47-.72,.44-1.15-.02-.43-.22-.83-.56-1.1-.56-.46-1.38-.45-1.93,.02l-3.47,2.94h-.26v-.32c0-.96-.78-1.75-1.75-1.75h-2.76l-4.11-.81c-.65-.13-1.33,.04-1.84,.46-.45,.37-.74,.9-.8,1.47H.44c-.13,0-.24,.11-.24,.24s.11,.24,.24,.24h1.72c.13,0,.24-.11,.24-.24,0-.52,.23-1.01,.63-1.34,.4-.33,.93-.46,1.44-.36l4.13,.82s.03,0,.05,0h2.78c.7,0,1.27,.57,1.27,1.27v.32h-4.58c-.13,0-.24,.11-.24,.24s.11,.24,.24,.24h5.41c.06,0,.11-.02,.15-.06l3.54-2.99c.38-.32,.93-.33,1.32-.01,.23,.18,.37,.46,.38,.75,.01,.29-.1,.58-.3,.78l-5.78,5.74Z"/>
      <path class="laveco-cls1" d="M9.48,6.88c-.46,.5-.92,.92-1.21,1.16-.1,.08-.12,.24-.03,.34,.08,.1,.24,.12,.34,.03,.05-.04,.61-.51,1.22-1.17,.61,.66,1.17,1.13,1.22,1.17,.05,.04,.1,.06,.15,.06,.07,0,.14-.03,.18-.09,.08-.1,.07-.25-.03-.34-.29-.24-.75-.66-1.21-1.16,.69-.8,1.36-1.79,1.36-2.62,0-.93-.75-1.68-1.68-1.68s-1.68,.75-1.68,1.68c0,.83,.66,1.82,1.36,2.62Zm.32-3.82c.66,0,1.2,.54,1.2,1.2s-.56,1.51-1.2,2.26c-.64-.75-1.2-1.6-1.2-2.26s.54-1.2,1.2-1.2Z"/>
      <path class="laveco-cls1" d="M6.01,10.04h7.58c.13,0,.24-.11,.24-.24V3.95l.5,.4s.1,.05,.15,.05c.07,0,.14-.03,.19-.09,.08-.1,.07-.25-.04-.34L9.95,.25c-.09-.07-.21-.07-.3,0L4.97,3.97c-.1,.08-.12,.23-.04,.34,.08,.1,.23,.12,.34,.04l.5-.4v5.85c0,.13,.11,.24,.24,.24ZM9.8,.75l3.55,2.82v5.99H6.25V3.57L9.8,.75Z"/>
    </g>
  </g>
</svg>