<?xml version="1.0" encoding="UTF-8"?>
<svg xmlns="http://www.w3.org/2000/svg" viewBox="0 0 19.7 18.11">
  <defs>
    <style>
      .affgen-cls1 {
        fill: currentColor;
        fill-rule: evenodd;
        stroke: currentColor;
        stroke-miterlimit: 10;
        stroke-width: .18px;
      }
    </style>
  </defs>
  <g id="Scritte">
    <path class="affgen-cls1" d="M5.17,2.53c.13,0,.24,.11,.24,.24s-.11,.24-.24,.24H2.28c-.2,0-.38,.08-.51,.21-.13,.13-.21,.31-.21,.51v3.16c0,.2,.08,.38,.21,.51,.13,.13,.31,.21,.51,.21,0,0,.01,0,.02,0l3.4-.03c.08,0,.16,.04,.2,.11l.86,1.3c.11-.15,.33-.46,.56-.75,.2-.25,.38-.48,.43-.54,.05-.06,.12-.09,.18-.09h0s.43,0,.43,0c.2,0,.38-.08,.51-.21,.13-.13,.21-.31,.21-.51v-.65c0-.13,.11-.24,.24-.24s.24,.11,.24,.24v.65c0,.33-.14,.63-.35,.85-.22,.22-.52,.35-.85,.35h-.32l-.36,.45c-.35,.43-.76,.95-.82,.98-.06,.03-.13,.04-.2,.03-.08-.01-.15-.05-.21-.13l-.9-1.35-3.27,.02s-.02,0-.02,0c-.33,0-.63-.14-.85-.35-.22-.22-.35-.52-.35-.85V3.73c0-.33,.14-.63,.35-.85,.22-.22,.52-.35,.85-.35h2.89Zm-.58,2c-.19,0-.37,.08-.49,.2-.13,.13-.2,.3-.2,.49s.08,.37,.2,.49c.13,.13,.3,.2,.49,.2s.37-.08,.49-.2c.13-.13,.2-.3,.2-.49s-.08-.37-.2-.49c-.13-.13-.3-.2-.49-.2Zm.15,.54s-.09-.06-.15-.06-.11,.02-.15,.06-.06,.09-.06,.15,.02,.11,.06,.15,.09,.06,.15,.06,.11-.02,.15-.06,.06-.09,.06-.15-.02-.11-.06-.15Zm-1.8-.54c-.19,0-.37,.08-.49,.2-.13,.13-.2,.3-.2,.49s.08,.37,.2,.49c.13,.13,.3,.2,.49,.2s.37-.08,.49-.2c.13-.13,.2-.3,.2-.49s-.08-.37-.2-.49c-.13-.13-.3-.2-.49-.2Zm.15,.54s-.09-.06-.15-.06-.11,.02-.15,.06-.06,.09-.06,.15,.02,.11,.06,.15,.09,.06,.15,.06,.11-.02,.15-.06,.06-.09,.06-.15-.02-.11-.06-.15ZM.57,17.49H1.9s0-.71,0-.71c0-.13,.11-.24,.24-.24s.24,.11,.24,.24v.72l4.54,.03v-.75c0-.13,.11-.24,.24-.24s.24,.11,.24,.24v.75h1.33s0-1.7,0-1.7c0-.45-.19-.85-.49-1.15-.3-.3-.72-.48-1.18-.48H2.23c-.46,0-.88,.18-1.18,.48-.3,.29-.49,.7-.49,1.15v1.66Zm8.36,.52l-6.77-.04s-.02,0-.02,0c0,0-.02,0-.03,0H.35s-.01,0-.02,0c-.13,0-.24-.11-.24-.24v-1.89c0-.58,.24-1.1,.63-1.49,.39-.38,.92-.62,1.51-.62H7.05c.59,0,1.12,.24,1.51,.62,.39,.38,.63,.91,.63,1.49v1.95c0,.13-.11,.24-.24,.24,0,0-.01,0-.02,0h0Zm-4.29-4.98c.45,0,.87-.18,1.16-.48,.3-.3,.48-.71,.48-1.16s-.18-.87-.48-1.16c-.3-.3-.71-.48-1.16-.48s-.87,.18-1.16,.48c-.3,.3-.48,.71-.48,1.16s.18,.87,.48,1.16c.3,.3,.71,.48,1.16,.48Zm1.5-.15c.38-.38,.62-.91,.62-1.5s-.24-1.12-.62-1.5-.91-.62-1.5-.62-1.12,.24-1.5,.62-.62,.91-.62,1.5,.24,1.12,.62,1.5,.91,.62,1.5,.62,1.12-.24,1.5-.62Zm1.21-8.64l2.62-.04c.13,0,.24-.11,.23-.24,0-.13-.11-.24-.24-.23l-2.62,.04c-.13,0-.24,.11-.23,.24,0,.13,.11,.24,.24,.23Zm0-1.05l5.25-.04c.13,0,.24-.11,.24-.24,0-.13-.11-.24-.24-.24l-5.25,.04c-.13,0-.24,.11-.24,.24,0,.13,.11,.24,.24,.24h0Zm0-1.05c-.13,0-.24-.1-.24-.24,0-.13,.1-.24,.24-.24l5.25-.04c.13,0,.24,.1,.24,.24,0,.13-.1,.24-.24,.24l-5.25,.04Zm5.35,3.23h.45c.21,0,.4-.09,.54-.22,.14-.14,.22-.33,.22-.54V1.33c0-.21-.09-.4-.22-.54-.14-.14-.33-.22-.54-.22H6.8c-.21,0-.4,.09-.54,.23-.14,.14-.22,.33-.22,.54v3.29c0,.21,.09,.4,.22,.54,.14,.14,.33,.22,.54,.22,0,0,.01,0,.02,0l3.55-.03c.08,0,.15,.04,.19,.09l1.31,1.71,.62-1.62c.04-.1,.13-.15,.22-.15h0Zm.45,.47c.34,0,.65-.14,.88-.36,.22-.22,.36-.54,.36-.88V1.33c0-.34-.14-.65-.36-.88-.22-.22-.54-.36-.88-.36H6.8c-.34,0-.65,.14-.88,.37-.22,.22-.36,.54-.36,.88v3.29c0,.34,.14,.65,.36,.88,.22,.22,.54,.36,.88,.36,0,0,.02,0,.02,0l3.43-.03,1.4,1.83c.05,.07,.12,.11,.2,.12,.07,0,.14,0,.2-.03,.13-.06,.15-.13,.18-.21h0s0-.02,0-.02l.63-1.65h.28Zm-2.16,8.32h1.33s0-.71,0-.71c0-.13,.11-.24,.24-.24s.24,.11,.24,.24v.72l4.54,.03v-.75c0-.13,.11-.24,.24-.24s.24,.11,.24,.24v.75h1.33s0-1.7,0-1.7c0-.45-.19-.85-.49-1.15-.3-.3-.72-.48-1.18-.48h-4.82c-.46,0-.88,.18-1.18,.48-.3,.29-.49,.7-.49,1.15v1.66Zm8.36,.52l-6.77-.04s-.02,0-.02,0c0,0-.02,0-.03,0h-1.76s-.01,0-.02,0c-.13,0-.24-.11-.24-.24v-1.89c0-.58,.24-1.1,.63-1.49,.39-.38,.92-.62,1.51-.62h4.82c.59,0,1.12,.24,1.51,.62,.39,.38,.63,.91,.63,1.49v1.95c0,.13-.11,.24-.24,.24,0,0-.01,0-.02,0h0Zm-4.29-4.98c-.45,0-.87-.18-1.16-.48-.3-.3-.48-.71-.48-1.16s.18-.87,.48-1.16c.3-.3,.71-.48,1.16-.48s.87,.18,1.16,.48c.3,.3,.48,.71,.48,1.16s-.18,.87-.48,1.16c-.3,.3-.71,.48-1.16,.48Zm1.5-.14c-.38,.38-.91,.62-1.5,.62s-1.12-.24-1.5-.62-.62-.91-.62-1.5,.24-1.12,.62-1.5,.91-.62,1.5-.62,1.12,.24,1.5,.62,.62,.91,.62,1.5-.24,1.12-.62,1.5Z"/>
  </g>
</svg>