<?xml version="1.0" encoding="UTF-8"?>
<svg xmlns="http://www.w3.org/2000/svg" viewBox="0 0 18.28 19.14">
  <defs>
    <style>
      .servsoc-cls1 {
        fill: currentColor;
        stroke: currentColor;
        stroke-miterlimit: 10;
        stroke-width: .18px;
      }
    </style>
  </defs>
  <g id="Scritte">
    <g>
      <path class="servsoc-cls1" d="M6.31,10.7h5.65c.84,0,1.52-.68,1.52-1.52,0-1.87-1.19-3.46-2.85-4.08,.74-.49,1.23-1.33,1.23-2.28C11.87,1.31,10.64,.09,9.14,.09s-2.73,1.23-2.73,2.73c0,.95,.49,1.79,1.23,2.28-1.66,.61-2.85,2.21-2.85,4.08,0,.84,.68,1.52,1.52,1.52h0Zm.83-7.88c0-1.1,.89-1.99,1.99-1.99s1.99,.89,1.99,1.99-.89,1.99-1.99,1.99-1.99-.89-1.99-1.99Zm1.99,2.74c1.99,0,3.61,1.62,3.61,3.61,0,.43-.35,.78-.78,.78h-.3v-1.33c0-.2-.17-.37-.37-.37s-.37,.17-.37,.37v1.33h-3.58v-1.33c0-.2-.17-.37-.37-.37s-.37,.17-.37,.37v1.33h-.3c-.43,0-.78-.35-.78-.78,0-1.99,1.62-3.61,3.61-3.61h0Z"/>
      <path class="servsoc-cls1" d="M17.88,7.3c-.21-.22-.51-.34-.84-.33-.44,.03-.83,.32-.97,.74l-.99,2.98c-.21-.14-.45-.21-.7-.2-.32,.02-.62,.16-.83,.4l-2.08,2.37c-.45,.51-.72,1.17-.77,1.86l-.22,3.53c-.01,.2,.14,.38,.35,.39,0,0,.02,0,.02,0,.19,0,.36-.15,.37-.35l.22-3.53c.03-.52,.24-1.02,.58-1.41l2.08-2.37c.08-.09,.19-.15,.32-.16,.09,0,.2,.02,.28,.08,.07,.05,.13,.13,.16,.21,0,0,0,.01,0,.02,.04,.15,.02,.3-.08,.41l-1.69,2.13c-.13,.16-.1,.39,.06,.52,.16,.13,.39,.1,.52-.06l1.69-2.13c.22-.27,.29-.61,.23-.95l1.18-3.53c.05-.14,.17-.23,.32-.24,.09,0,.19,.03,.26,.1,.07,.07,.1,.16,.1,.26l-.49,6.15c-.04,.45-.27,.86-.63,1.12l-2.07,1.48c-.08,.06-.13,.14-.15,.23l-.29,1.56c-.04,.2,.1,.39,.3,.43,.02,0,.05,0,.07,0,.17,0,.33-.13,.36-.3l.26-1.41,1.95-1.4c.54-.38,.89-.99,.94-1.66l.49-6.16c.02-.31-.09-.61-.31-.83h0Z"/>
      <path class="servsoc-cls1" d="M6.82,13.28l-2.08-2.38c-.22-.25-.51-.39-.83-.4-.25-.02-.49,.05-.71,.19l-.99-2.98c-.14-.42-.53-.72-.99-.74-.29,0-.6,.11-.82,.33-.21,.22-.33,.52-.31,.83l.49,6.15c.06,.67,.4,1.28,.94,1.66l1.95,1.4,.26,1.41c.03,.18,.19,.3,.36,.3,.02,0,.05,0,.07,0,.2-.04,.33-.23,.3-.43l-.29-1.56c-.02-.09-.07-.18-.15-.23l-2.07-1.49c-.36-.26-.59-.66-.63-1.12l-.49-6.14c0-.1,.03-.19,.1-.26,.07-.07,.16-.11,.27-.1,.14,0,.26,.1,.31,.24l1.18,3.53c-.06,.34,.02,.68,.23,.95l1.69,2.13c.13,.16,.36,.19,.52,.06,.16-.13,.19-.36,.06-.52l-1.69-2.13c-.09-.11-.12-.26-.07-.41,0,0,0-.01,0-.02,.03-.09,.09-.16,.16-.21,.08-.06,.17-.09,.29-.08,.12,0,.23,.06,.31,.15l2.08,2.38c.34,.39,.55,.89,.58,1.41l.22,3.53c.01,.2,.17,.35,.37,.35,0,0,.02,0,.02,0,.2-.01,.36-.19,.35-.39l-.22-3.52c-.04-.69-.31-1.35-.76-1.85h0Z"/>
    </g>
  </g>
</svg>