<?xml version="1.0" encoding="UTF-8"?>
<svg xmlns="http://www.w3.org/2000/svg" viewBox="0 0 18.22 18.32">
  <defs>
    <style>
      .cult-cls1 {
        fill: currentColor;
        fill-rule: evenodd;
        stroke: currentColor;
        stroke-miterlimit: 10;
        stroke-width: .17px;
      }
    </style>
  </defs>
  <g id="Scritte">
    <path class="cult-cls1" d="M17.59,17.47c0,.12-.1,.22-.22,.22h-2.88c-.12,0-.22-.1-.22-.22v-5.05c0-.25-.52-1.84-.76-2.24-.07-.12-.23-.32-.5-.66-.28-.35-.63-.79-.9-1.19-.37-.53-.43-.73-.44-.79,.08-.14,.25-.26,.41-.28,.08-.01,.18,0,.26,.07l2.52,2.59c-.07,.98,.75,1.8,1.7,1.75l.52,.53c.32,.33,.52,.55,.52,.87v4.41Zm-5.99-5.22c.26-.39,.8-1.18,1.31-1.99l-.61-.78-1.18,1.46c-.31,.38-.59,.67-.87,.89-.3,.32-.72,.52-1.2,.52-.57,0-1.07-.29-1.36-.73-.18-.16-.36-.36-.55-.59l-1.21-1.49-.62,.79c.49,.76,1,1.51,1.25,1.88,.09,.13,.14,.21,.17,.25,.23,.36,.72,1.7,.72,1.93v3.15c0,.07,.09,.14,.18,.14h2.93c.1,0,.18-.07,.18-.14v-3.16c0-.23,.48-1.57,.72-1.93,.02-.03,.07-.11,.14-.21h0Zm-7.61,.17v5.05c0,.12-.1,.22-.22,.22H.88c-.12,0-.22-.1-.22-.21v-4.41c0-.32,.2-.54,.52-.87l.51-.53s.02,0,.02,0c.94,0,1.68-.79,1.64-1.71l2.56-2.63c.07-.08,.18-.08,.26-.07,.17,.03,.33,.14,.41,.28-.01,.06-.07,.26-.44,.79-.28,.4-.62,.84-.9,1.19-.27,.35-.43,.55-.5,.66-.24,.4-.76,1.99-.76,2.24h0ZM.63,10.03c0,.6,.49,1.09,1.09,1.09s1.09-.49,1.09-1.09-.49-1.09-1.09-1.09-1.09,.49-1.09,1.09Zm1.66-2.48h2.64l.59-.61c.19-.19,.45-.27,.73-.23,.35,.05,.67,.28,.82,.58,.04,.07,.06,.16,.06,.25h.72v-1.72h-.3c-.58,0-1.06-.48-1.06-1.06s.48-1.06,1.06-1.06h.3V1.99h-1.72v.3c0,.58-.48,1.06-1.06,1.06s-1.06-.48-1.06-1.06v-.3h-1.72V7.55Zm6.75,2.07c.6,0,1.09,.49,1.09,1.09,0,.27-.1,.52-.26,.71-.28,.21-.54,.32-.79,.32h0c-.3,0-.62-.15-.97-.47-.1-.16-.15-.35-.15-.56,0-.6,.49-1.09,1.09-1.09h0Zm1.36-2.07h.72c0-.1,.01-.18,.06-.25,.16-.3,.48-.53,.82-.58,.29-.04,.55,.04,.73,.23l.59,.61h2.64V1.99h-2c-.15,0-.27-.12-.27-.27v-.57c0-.28-.23-.51-.51-.51s-.51,.23-.51,.51v.57c0,.15-.12,.27-.27,.27h-2v2c0,.15-.12,.27-.27,.27h-.57c-.28,0-.51,.23-.51,.51s.23,.51,.51,.51h.57c.15,0,.27,.12,.27,.27v2Zm6.09,1.39c-.6,0-1.09,.49-1.09,1.09s.49,1.09,1.09,1.09,1.09-.49,1.09-1.09-.49-1.09-1.09-1.09Zm.98,2.87l-.29-.3c.56-.26,.95-.83,.95-1.49,0-.9-.74-1.64-1.64-1.64-.64,0-1.2,.37-1.47,.91l-1.16-1.2h2.38c.15,0,.27-.12,.27-.28V1.71c0-.15-.12-.27-.27-.27h-2v-.3c0-.58-.48-1.06-1.06-1.06s-1.06,.48-1.06,1.06v.3h-2c-.15,0-.27,.12-.27,.27v2h-.3c-.58,0-1.06,.48-1.06,1.06s.48,1.06,1.06,1.06h.3v2c0,.15,.12,.27,.27,.27h1.19c.14,.25,.35,.55,.63,.93l-1.27,1.56c-.06-.85-.77-1.53-1.63-1.53s-1.52,.63-1.63,1.43l-1.15-1.41c.31-.41,.53-.73,.67-.99h1.19c.15,0,.27-.12,.27-.27v-2.27c0-.15-.12-.27-.28-.27h-.57c-.28,0-.51-.23-.51-.51s.23-.51,.51-.51h.57c.15,0,.27-.12,.27-.27V1.71c0-.15-.12-.27-.27-.27h-2.27c-.15,0-.27,.12-.27,.27v.57c0,.28-.23,.51-.51,.51s-.51-.23-.51-.51v-.57c0-.15-.12-.27-.27-.27H2.02c-.15,0-.27,.12-.27,.27V7.83c0,.15,.12,.27,.27,.27h2.38l-1.19,1.23c-.26-.55-.83-.94-1.48-.94-.9,0-1.64,.74-1.64,1.64,0,.67,.4,1.25,.98,1.5l-.27,.28c-.33,.34-.67,.69-.67,1.25v4.41c0,.42,.34,.77,.77,.77H3.76c.42,0,.77-.34,.77-.77v-5.04c.02-.16,.27-.98,.49-1.53,.44,.67,.86,1.3,1.08,1.63,.08,.12,.14,.21,.16,.24,.19,.29,.59,1.44,.63,1.64v3.14c0,.38,.33,.69,.73,.69h2.93c.4,0,.73-.31,.73-.69v-3.14c.03-.2,.44-1.35,.63-1.64,.02-.03,.07-.11,.14-.21,.24-.35,.69-1.03,1.15-1.75,.22,.55,.5,1.45,.52,1.62v5.04c0,.42,.34,.77,.77,.77h2.88c.42,0,.77-.34,.77-.77v-4.41c0-.56-.34-.91-.67-1.25h0Z"/>
  </g>
</svg>