<?xml version="1.0" encoding="UTF-8"?>
<svg xmlns="http://www.w3.org/2000/svg" viewBox="0 0 20.77 21.68">
  <defs>
    <style>
      .urb-cls1 {
        fill: currentColor;
        fill-rule: evenodd;
        stroke: currentColor;
        stroke-miterlimit: 10;
        stroke-width: .16px;
      }
    </style>
  </defs>
  <g id="Scritte">
    <path class="urb-cls1" d="M5.08,3.52c0-.15,.12-.26,.26-.26s.26,.12,.26,.26v1.58l1.19-1.11c.11-.1,.27-.09,.37,.01,.1,.11,.09,.27-.01,.37l-1.55,1.44v3.88l1.19-1.11c.11-.1,.27-.09,.37,.01,.1,.11,.09,.27-.01,.37l-1.55,1.44v1.78c.47-.16,.87-.49,1.06-.97,0,0,0-.01,0-.02,.06-.13,.21-.19,.34-.14,.41,.18,.76,.18,1.03,.07,.2-.08,.36-.21,.48-.38,.12-.17,.2-.39,.23-.61,.04-.34-.05-.7-.28-.99-.05-.05-.08-.13-.07-.21,.02-.14,.15-.25,.29-.23,.38,.05,.78-.11,1.08-.39,.18-.17,.33-.37,.41-.6,.08-.22,.1-.46,.05-.7-.09-.38-.38-.77-.96-1.1-.02-.01-.04-.03-.06-.04-.1-.1-.1-.27,0-.37,.43-.42,.66-.92,.69-1.41,.03-.35-.04-.69-.19-.99-.15-.29-.38-.54-.69-.71-.4-.22-.92-.3-1.55-.17h0s0,0,0,0c-.14,.03-.28-.06-.31-.21-.11-.57-.4-.96-.77-1.18-.26-.16-.56-.23-.86-.23-.31,0-.62,.08-.89,.23-.43,.23-.77,.64-.91,1.2-.03,.12-.13,.21-.26,.21-.9,0-1.57,.22-2.02,.6-.23,.19-.4,.42-.52,.68-.12,.26-.18,.54-.18,.83,0,.63,.25,1.32,.76,1.93h0s.02,.03,.03,.04c.07,.13,.02,.29-.1,.35-.63,.34-.86,.86-.85,1.38,0,.26,.08,.53,.19,.78,.11,.25,.27,.48,.46,.66,.35,.36,.8,.55,1.19,.4h0s.06-.02,.09-.02c.14,0,.26,.12,.26,.27-.01,.77,.27,1.33,.69,1.68,.27,.23,.6,.37,.94,.44,.22,.04,.44,.05,.65,.03v-4.07s-1.55-1.44-1.55-1.44c-.11-.1-.11-.26-.01-.37s.26-.11,.37-.01l1.19,1.11V3.52Zm1.23,16.56c-.13,.06-.29,0-.35-.12,0,0,0-.01,0-.02-.06-.14-.16-.25-.28-.33-.1-.07-.22-.11-.35-.12h0s-.03,0-.04,0c-.06,0-.12,0-.17,.02-.06,.01-.11,.04-.16,.06-.13,.07-.29,.02-.35-.11,0-.02-.02-.04-.02-.06-.05-.16-.15-.3-.28-.4-.12-.09-.27-.15-.43-.15-.21,0-.39,.09-.53,.23-.14,.15-.23,.35-.23,.58,0,.03,0,.04,0,.05,0,.01,0,.03,0,.05,.02,.14-.09,.27-.23,.29-.05,0-.1,0-.14-.02-.21-.07-.39-.08-.53-.05-.11,.03-.21,.08-.29,.15-.08,.07-.14,.17-.17,.27-.05,.13-.06,.27-.03,.39,.02,.08,.06,.15,.12,.19,.06,.05,.13,.07,.21,.07H7.08c.07,0,.13-.02,.18-.05,.05-.03,.1-.09,.13-.15,.05-.11,.06-.24,.03-.37-.03-.13-.1-.25-.19-.35-.09-.09-.21-.16-.36-.18-.16-.02-.34,0-.55,.1h0Zm0-.56c.23-.07,.44-.09,.63-.06,.26,.04,.48,.16,.65,.33,.16,.17,.28,.38,.33,.6,.05,.23,.04,.48-.05,.69h1.4v-1.94h-1.58c-.15,0-.26-.12-.26-.26v-.69c0-.26,.11-.5,.28-.67s.41-.28,.67-.28h1.41v-1.2h-1.02c-.12,0-.23-.05-.3-.13,0,0-.01-.02-.02-.02-.07-.08-.11-.17-.11-.28v-1.87c0-.12,.05-.23,.13-.3h0c.08-.08,.19-.13,.3-.13h1.02v-.62c0-.15,.12-.26,.26-.26h1.26c.15,0,.26,.12,.26,.26v.62h3.36v-.62c0-.15,.12-.26,.26-.26h1.26c.15,0,.26,.12,.26,.26v.62h1.02c.12,0,.23,.05,.3,.13,0,0,.01,.02,.02,.02,.07,.08,.11,.17,.11,.28v1.87c0,.12-.05,.23-.13,.3h0c-.08,.08-.19,.13-.3,.13h-1.02v1.2h1.41c.26,0,.5,.11,.67,.28s.28,.41,.28,.67v.69c0,.15-.12,.26-.26,.26h-1.58v1.94h3.19c.15,0,.26,.12,.26,.26s-.12,.26-.26,.26H.52c-.15,0-.26-.12-.26-.26s.12-.26,.26-.26h.75s-.04-.1-.05-.15c-.05-.22-.03-.46,.05-.69,.06-.17,.16-.34,.3-.47,.14-.13,.32-.23,.53-.28,.15-.03,.32-.04,.5-.02,.04-.29,.17-.55,.36-.75,.23-.25,.55-.4,.91-.4,.28,0,.54,.1,.75,.26,.14,.11,.26,.25,.35,.41h.02s.07-.02,.1-.03v-6.15c-.25,.02-.5,0-.75-.04-.43-.08-.84-.26-1.18-.55-.47-.39-.8-.98-.87-1.76-.5,.04-1.01-.2-1.4-.6-.23-.23-.42-.51-.56-.82-.14-.31-.23-.64-.24-.98-.02-.63,.23-1.24,.86-1.69-.47-.65-.7-1.37-.7-2.04,0-.37,.08-.72,.22-1.05,.15-.33,.37-.62,.66-.86,.5-.42,1.22-.69,2.16-.72,.2-.62,.62-1.07,1.11-1.34,.35-.19,.75-.29,1.14-.29,.4,0,.79,.1,1.13,.31,.43,.26,.77,.68,.95,1.28,.66-.09,1.22,.02,1.67,.26,.4,.22,.71,.55,.9,.93,.2,.38,.28,.82,.25,1.27-.04,.52-.24,1.04-.63,1.5,.54,.38,.83,.82,.93,1.26,.08,.35,.05,.69-.07,1-.11,.31-.31,.58-.55,.81-.29,.26-.64,.45-1.01,.51,.14,.32,.19,.66,.15,.99-.03,.31-.14,.6-.32,.85-.18,.25-.42,.45-.72,.57-.34,.13-.74,.15-1.19,0-.3,.56-.83,.93-1.43,1.1h0v6.27c.13,.04,.25,.09,.36,.17,.13,.09,.25,.21,.34,.34h0Zm4.58,1.57h4.72v-1.94h-4.72v1.94Zm5.3-7.77v-.36h-.74v.36h.74Zm-1.26,3.93v-1.2h-3.36v1.2h3.36Zm.52-1.2v1.2h.74v-1.2h-.74Zm-4.41-2.73v-.36h-.74v.36h.74Zm-.74,2.73v1.2h.74v-1.2h-.74Zm5.83,3.1v1.94h.58v-1.94h-.58Zm-6.35,0v1.94h.58v-1.94h-.58Zm8.34-1.38H8.38c-.12,0-.22,.05-.3,.13-.08,.08-.13,.18-.13,.3v.43h10.6v-.43c0-.12-.05-.22-.13-.3-.08-.08-.18-.13-.3-.13h0Zm-.48-3.93H8.86v1.68h8.79v-1.68Z"/>
  </g>
</svg>