<?xml version="1.0" encoding="UTF-8"?>
<svg xmlns="http://www.w3.org/2000/svg" viewBox="0 0 18.3 18.34">
  <defs>
    <style>
      .lavpub-cls1 {
        fill: currentColor;
        stroke: currentColor;
        stroke-miterlimit: 10;
        stroke-width: .3px;
      }
    </style>
  </defs>
  <g id="Scritte">
    <g>
      <path class="lavpub-cls1" d="M16.33,.15c-.2,0-.39,.04-.61,.11-.07,.02-.13,.09-.13,.17v1.8H2.71V.45c0-.07-.06-.15-.13-.17-.22-.07-.43-.11-.61-.11C.97,.15,.15,.97,.15,1.97V14.98c0,1,.82,1.82,1.82,1.82l7.53-.02-.02,.97c0,.39,.69,.45,1.08,.45s1.08-.06,1.08-.45l-.02-.97h4.71c1,0,1.8-.8,1.82-1.8V1.97c.02-1-.8-1.82-1.82-1.82h0ZM.52,1.97C.52,1.17,1.17,.52,1.97,.52c.13,0,.24,.02,.37,.06V13.2c-.13-.04-.26-.04-.37-.04-.59,.02-1.11,.3-1.45,.72V1.97ZM11.14,10.38c-.2,.07-.91,.07-1.13,0l.07-3.62h.98l.07,3.62Zm0,.02v.06h-.02s0-.04,.02-.06Zm.11-4.05h-1.13c-.15,0-.19-.04-.2-.09-.11-.22-.37-.48-1.04-.48-.35,0-.76,.06-.95,.48-.02,.07-.09,.09-.22,.09h-.78c-.11,0-.24-.09-.24-.24v-2.1c0-.11,.09-.24,.24-.24h.76c.19,0,.2,.07,.22,.13,.2,.52,.78,.52,.97,.52,.56,0,.91-.17,1.06-.5,.04-.06,.07-.11,.24-.11h.65c2.39,.02,3.75,.97,4.14,2.88-.61-.74-1.17-1.13-1.74-1.19h-.15c-.41,0-.84,.17-1.26,.52-.02,.02-.04,.04-.06,.06-.02,.02-.06,.04-.06,.04l-.04,.02-.07,.07c-.17,.09-.24,.15-.33,.15h0Zm-1.39,11.38l.13-6.98h.02c.15,.02,.33,.04,.54,.04,.26,0,.45-.02,.58-.06l.13,6.98c-.19,.17-1.19,.17-1.39,.02h0Zm6.48-1.3h-4.73l-.19-9.72c.15-.06,.26-.17,.37-.26,.06-.02,.09-.06,.13-.09,.02-.02,.04-.02,.06-.04l.02-.02c.39-.33,.78-.46,1.15-.43,.48,.06,.98,.41,1.54,1.1,.07,.09,.17,.13,.28,.13,.06,0,.11-.02,.17-.04,.15-.07,.22-.22,.19-.39-.39-2.13-1.91-3.23-4.51-3.25h-.65c-.33,0-.48,.17-.58,.33-.04,.07-.13,.3-.72,.3-.45,0-.58-.15-.61-.28-.04-.13-.19-.37-.58-.37h-.76c-.33,0-.61,.28-.61,.61v2.12c0,.33,.28,.61,.61,.61h.78c.28,0,.48-.13,.58-.33,.07-.15,.19-.24,.61-.24,.26,0,.59,.06,.71,.28,.04,.07,.09,.13,.15,.17l-.11,3.86v.02l-.11,5.94-7.53,.02c-.8,0-1.45-.65-1.45-1.45s.63-1.45,1.45-1.47c.17,0,.32,.02,.5,.09,.06,.02,.11,0,.17-.02,.06-.04,.07-.09,.07-.15V2.62H15.59V13.44c0,.06,.04,.11,.07,.15,.06,.04,.11,.04,.17,.02,.19-.06,.33-.09,.5-.09,.8,0,1.45,.65,1.45,1.45s-.63,1.47-1.45,1.47h0Zm0-3.28c-.13,0-.24,.02-.37,.04V.56c.13-.04,.26-.06,.37-.06,.8,0,1.45,.65,1.45,1.45V13.85c-.32-.41-.85-.7-1.45-.7h0Z"/>
      <path class="lavpub-cls1" d="M5.14,4.33h-.89c-.39,0-.69,.3-.69,.69v7.85s0,.06,.02,.09l.93,1.76c.04,.06,.09,.09,.17,.09s.13-.04,.17-.09l.95-1.76c.04-.07,.04-.13,.04-.19V4.99c0-.37-.3-.67-.69-.67h0Zm-.26,8.18v-4.05c0-.11-.07-.19-.19-.19s-.19,.07-.19,.19v4.03l-.59,.06V5.87h.56v.72c0,.11,.07,.19,.19,.19s.19-.07,.19-.19v-.72h.59v6.68l-.56-.04Zm-.63-7.81h.89c.17,0,.32,.13,.32,.32v.5h-1.52v-.5c0-.19,.13-.32,.32-.32h0Zm.43,9.52l-.69-1.3,.71-.06,.67,.06-.69,1.3Z"/>
    </g>
  </g>
</svg>