<?xml version="1.0" encoding="UTF-8"?>
<svg id="Layer_1" data-name="Layer 1" xmlns="http://www.w3.org/2000/svg" viewBox="0 0 6206.53 1513.98">
  <defs>
    <style>
      .cls-1 {
        fill: #cf432a;
      }
    </style>
  </defs>
  <g>
    <path class="cls-1" d="M3316.26,549.41c4.33-36.23,4.84-57.55,9.79-78.17,9.18-38.29,39.02-60.35,87.94-64.74,43.02-3.86,85.97-8.84,129.13-10.89,24.33-1.16,36.05-10.47,46.23-26.71,33.58-53.55,20.97-71.61-53.26-72.29-105.31-.97-210.73,2.1-315.83-6.58-39.22-3.24-96.03-7.33-101.79-33.65-7.2-32.86,45.25-51.75,82.84-64.33,101.63-34.02,211.86-32.88,309.56-4.61,186.94,54.08,379.27,59.14,570.04,57.35,110-1.03,160.88-1.4,239.35-1.89,85.62-.53,93.37,99.68,82.04,88.3-4.86-4.88-9.16-5.76-15.92-6.28-186.91-14.55-632.44-31.12-632.42-23.38,.06,22.82-15.3,77.97-29.36,100.92-1.33,2.18,54.28,3.03,69.72,2.91,52.93-.41,106.1,.51,162.37,1.11-43.56,89.11-103.51,87.9-204.29,84.43-50.09-1.72-77.81,4.53-101.19,42.72-115.31,173.82-102.32,139.21-384.86,609.25-31.05,51.66-11.08,94.47-2.65,121.26,2.04,6.48-4.15,12.55-10.59,10.4-36.36-12.15-120.63-59.45-115.52-152.55,1.87-34.11,32.48-75.63,49.8-101.98,86.49-131.65,173.54-263.06,259.91-394.76,22.06-33.64,42.32-68.05,63.54-102.05,10.31-16.52,17.47-34.94-16.1-35.08-63.37-.27-130.24-4.35-178.47,61.31Zm-103.8-346.28c-127.36,42.17,182.83,15.41,274.42,16.39-90.09-29.82-180.81-49.02-274.42-16.39Z"/>
    <path class="cls-1" d="M4650,779c-39.07,30.75-126.41,93.77-168.53,102.53-28.04,5.83-59.6,11.47-84.91-5.87-26.29-18.01-12.26-86.9-7.58-103.09-61.51,40.95-99.22,92.2-163.79,119.81-39.77,17.01-84.53,34.45-120.93,7.54-35.62-26.32-18.87-127.14-12.02-149.15-54.72,39.65-98.06,71.83-142.5,103-31.62,22.18-66.28,44.16-110.81,25.41-43.5-18.31-45.27-52.28-39.03-86.62,29.05-160.05,146.56-332.87,359.99-378.33,43.99-9.37,105.03,11.39,112.56,47.92,9.88,47.88,27.61,31.36,54.59,10.93,13.17-9.97,31.04-16.03,47.04-23.49,29.77-13.88,58.45-9.16,77.22,11.74,24.84,27.67-18.42,27.08-30.98,36.61-72.48,55.01-195.69,252.68-214.45,346.11-2.07,10.31,9.14,18.15,18.16,12.75,87.4-52.29,167.22-106.64,218.33-181.65,77.91-114.35,161.5-226.74,220.14-348.87,26.21-54.58,20.46-58.54-53.98-55.96,45.73-34.26,99.33-46.06,153.86-49.85,44.46-3.09,76.24,30.9,72.62,71.06-4.77,52.83-38.48,96.86-69.13,141.94-80.88,118.97-161,238.27-240.31,357.92-8.61,12.98-21.74,26.6-17.04,42.88,1.46,5.04,6.33,8.35,11.55,7.82,23.67-2.44,95.04-61,129.93-63.06Zm-723.52,10.76c-.15,8.8,9.3,14.44,16.94,10.09,129.24-73.54,215.59-169.24,291.63-272.29,15.7-21.28,7.96-39.63-15.4-51.22-21.77-10.79-44.89-11.51-66.07,6.71-83.76,72.03-147.5,154.79-202.89,241.95-11.98,18.84-23.77,38.59-24.21,64.76Z"/>
    <path class="cls-1" d="M1885.03,793.15c-45.24,69.97-91.34,139.6-135.33,210.08-19.1,30.6-66.95,43.9-106.08,30.31-34.53-11.99-12.48-28.39-6.58-40.16,56.73-113.3,123.54-222.83,194.16-330.92,41.03-62.8,79.86-126.52,119.46-189.92,5.5-8.8,26.69-36.55,23.57-43.74-10.61-24.43-25.01-21.14-20.58-27.17,7.39-10.04,40.49-12.61,70.9-12.44,45.01,.26,63.43,13.36,73.56,56.24,.74,3.13,3.75,5.2,6.94,4.79,14.94-1.93,25.14-11.13,36.88-17.77,39.58-22.39,83.58-22.97,122.53-4.94,44.21,20.46,52.36,60.15,45.32,96.27-26.26,134.72-106.21,248.53-220.47,347.69-33.44,29.02-78.09,42.31-123.1,32.92-44.06-9.19-54.67-46.18-63.95-78.84-2.7-9.52-7.06-32.17-8.27-41.96-.75-2.91,1.06-4.53-8.98,9.56Zm57.56,22.92c13.84,12.26,31.49-4.67,42.87-13.12,93.5-69.44,243.54-301.23,182.36-327.26-33.75-14.36-65.33,11.05-88.56,32.29-14.59,13.34-226.8,228.27-136.67,308.09Z"/>
    <path class="cls-1" d="M5272.86,740c41-87.99,93.2-171.67,149.33-253.94,11.32-16.59,23.63-33.66,30.79-43.49,2.61-3.59,.19-8.64-4.25-8.83-13.49-.6-37.9-1.63-59.72-2.33-4.58-.15-47.43-.16-59.96-1.11-2.08-.16-4.16-6.07-4.1-8.15,.09-3.3,.24-7.73,.4-8.63,.43-2.33,.11-8.04,1.74-11.68,.88-1.98,2.82-3.28,4.99-3.34,9.1-.24,84.33,.59,141.93,1.97,4.76,.11,9.27-2.11,11.88-6.09,9.39-14.37,43.66-53.14,66.05-95.22,10.96-20.6,72.7-9.71,106.62-6.32,6.8,.68,8.6,6.44,6.64,12.99-3.77,12.58-35.32,63.46-51.08,85.99-3.01,4.31-7.47,12.65-2.22,12.95,8.32,.48,48.09-1.91,71.43-.19,10.69,.79,6.23,34.85-11.1,33.5-25.51-2-57.55-1.47-71.77-1.09-4.61,.12-8.86,2.51-11.37,6.37l-36.79,56.62s-143.03,210.3-169.13,336.23c-2.03,9.81,7.84,17.85,17.05,13.91,100.33-42.95,194.78-81.78,240.2-170.77,42.21-82.68,113.3-156.84,116.52-250.45,4.48-12.24,19.74-5.62,33.4-6.29,78.96-3.9,101.59,23.83,72.57,84.84-41.98,88.26-101.86,169.65-149.13,255.83-16.26,29.64-56.32,83.91-23.27,90.16,59.51,11.25,212.99-76.34,248.1-173.05-21.05,129.53-154.54,203.55-306.38,223.59-71.35,9.42-97.99-3.82-81.75-62.09,4-14.34,9.59-28.39,19.51-57.36-51.84,40.66-103.19,58.88-149.57,83.68-36.12,19.32-74.4,41.2-118.49,20.93-50.33-23.13-55.28-62.87-45.03-104.87,2.77-11.36,12.96-40.94,15.97-44.25Z"/>
    <path class="cls-1" d="M2437.78,445.39c62.38-8.4,122.25-32.68,156.4,33.3,8.49,16.41,128.82-58.51,188.14-24.9,56.3,31.9,60.91,78.5,48.5,123.76-36.28,132.2-131.17,236.8-253.89,326.35-29.77,21.73-67.29,29.55-103.35,15.02-45.72-18.43-56.59-54.43-54.2-103.25-46.9,53.09-65.91,106.82-97.66,155.12-12.31,18.73-20.78,41.11-52.1,45.15-72.1,9.29-92.05-8.14-63.75-62.15,39.79-75.95,84.43-150.28,128.5-224.73,46.79-79.04,88.42-159.59,126.81-241.57,12.01-25.64-1.2-30.3-23.4-42.09Zm45.74,365.7c28.95,3.38,47.48-17.02,62.75-32.3,72.97-73.04,136.26-149.58,167.24-239.2,4.6-13.31-3.7-49.72-27.34-49.72-185.74,0-283.56,311.77-202.64,321.22Z"/>
    <path class="cls-1" d="M1561.42,615.01c28.36,1.66,75.22,6.98,101.21,7.89,25.63,.89,51.31,.69,80.5,1-60.2,71.54-143.69,83.59-234.61,73.39-21.97-2.47-46.7-9.84-58.76-3.97-14.28,6.96-58.7,91.92-60.08,124.86-1.8,42.75,36.22,54.33,97.4,52.77,75.63-1.94,226.63-120.01,236.67-132.65-99.08,124.76-223.36,186.66-312.67,172.14-57.74-9.39-94.53-35.3-104.42-92.26-7.5-43.18-2.4-86.14,12.01-128,39.84-115.75,109.99-217.25,223.74-296.74,58.19-40.66,120.89-40.59,178.96-.72,40.41,27.74,43.74,63.18,17.8,98.58-25.42,34.68-62.89,60.86-104.55,83.04-19.92,10.61,13.16-7.24-73.2,40.68Zm118.25-202.2c-.64-7.37-8.28-20.28-14.62-16.46-85.91,51.81-157.92,124.86-163.26,200.18-.51,7.22,4.85,40.61,44.76,7.79,26.57-21.85,49.25-48.36,72.15-73.56,30.54-33.61,65.44-66.25,60.97-117.96Z"/>
    <path class="cls-1" d="M3205.21,744.11c-102.15,131.76-189.26,198.63-308.44,167.56-54.59-14.23-83.71-40.05-83.27-115.04,13.82-148.29,88.95-269.46,238.96-359.05,34.14-20.39,71.11-24.66,111.17-18.66,71.84,10.76,93.27,60.75,53.19,111.28-94.03,118.55-181.93,124.28-173.26,124.79,41.03,10.89,150.72-6.5,199.9-5.17-34.3,43.04-65.85,65.55-136.13,66.17-24.41,.21-49.44-.24-74.15,.68-89.61,3.34-140.07,72.73-104.27,140.95,12.94,24.66,41.44,30.62,62.2,26.28,105.05-21.93,214.09-139.78,214.09-139.78Zm-213.65-103.5c-2.22,6.61,4.47,12.75,10.86,9.96,94.78-41.36,137.61-107.97,172.42-179.88,4.12-8.52,4.43-16.57-4.21-22.44-9.61-6.53-20.54-2.05-27.78,3.09-71.18,50.57-124.62,109.89-151.29,189.27Z"/>
    <path class="cls-1" d="M4910.36,235.79c46.39-12.23,83.33-17.69,118.36-3.53,48.96,19.79,65.68,53.09,50.72,95.38-28.9,81.67-87.63,152.1-133.89,227.19-45.53,73.92-94.8,146.37-131.13,223.76-8.72,18.58-23.02,43.42-5.81,56.05,20.01,14.69,124.83-57.81,138.22-60.09-39.73,48.24-144.84,106.47-203.44,115.32-40.48,6.11-64.88-10.03-74.02-37.35-13.53-40.42-7.23-82.6,16.52-119.06,84.63-129.95,173.12-258.27,258.89-387.74,26-39.24,37.12-78.71-34.43-109.93Z"/>
    <path class="cls-1" d="M5247.88,758.58c-3.02,3.31-94.32,79.69-163.66,109.86-17.98,7.82-36.48,16.29-56.08,20.07-73.12,14.12-102.09-9.76-84.05-67.85,6.46-20.8,26.7-67.34,29.54-70.1,49.57-88.14,189.78-303.67,142.38-321.16-14.72-5.43-3.7-19.49,8.05-22.3,38.38-9.16,78.14-10.5,113.04,7.54,29.93,15.47,22.26,41.26,15.73,63.48-16.7,56.82-59.16,104.83-86.39,158.13-31.59,61.85-66.09,122.88-89.89,193.29-2.33,6.89,4.02,13.62,11.01,11.64,58.03-16.48,133.3-79.16,160.32-82.62Z"/>
    <path class="cls-1" d="M5917.77,276.86c28.8,.59,48.04,16.13,45.98,37.08-3.15,31.92-33.89,48.97-71.92,49.82-36.16,.8-51.81-25.64-50.36-47.12,2.26-33.36,41.7-35.67,76.3-39.78Z"/>
    <path class="cls-1" d="M5369.32,283.73c-9.56,27.6-37.58,39.18-72.03,40.96-30.46,1.58-47.34-15.78-45.03-37.07,3.23-29.71,30.52-46.35,66.81-46.24,29.21,.09,49.83,13.4,50.24,42.35Z"/>
    <path class="cls-1" d="M1003.79,293.12c46.32-43.51,91.73-73.52,145.38-95,110.69-44.33,228.6,14.04,228.85,118.45-26.38,224.47-139.44,417-353.6,565.81-91.13,63.33-206.22,30.36-235.41-63.18-.29-.93-.57-1.86-.84-2.8-7.69-26.53-12.78-38.32-13.95-90.06-91.95,139.46-170.67,274.98-251.76,409.73-49.25,81.85-103.97,176.38-54.34,246.9,14.06,19.99-17.4,19.99-34.59,9.28-93.25-55.45-122.52-114.67-90.03-204.93,50.95-141.55,122.84-276.03,209.69-406.24,78.45-117.61,279.14-479.69,294.67-543.9,7.18-29.71,14.67-58.65-10.11-85.69-6.02-6.57-13.87-13.24-5.59-21.79,10.67-11.01,21.38-2.58,32.72,.21,91.4,22.46,123.3,57.34,138.9,163.18Zm-191.45,393.84c-33.97,73.73,19.44,169.1,62.23,169.1,102.35,0,216.37-154.26,259.65-225.67,67.34-111.11,96.07-211.87,105.44-323.72,6.71-80.08-68.06-71.82-141.24-31.44-22.43,12.37-49.81,31.26-80.62,62.2-27.65,27.77-53.61,73.01-85.67,124.19-42.18,67.36-64.77,105.9-119.8,225.34Z"/>
  </g>
  <g>
    <path class="cls-1" d="M947.75,1243.61c7.44-4.49,14.08-11.11,19.92-19.86l20.36,17.18c-6.93,12.48-15.85,21.94-26.76,28.4-10.91,6.46-23.44,9.69-37.59,9.69-15.69,0-29.59-3.45-41.7-10.34-12.11-6.89-21.56-16.62-28.34-29.17-6.79-12.55-10.29-27.03-10.51-43.45,.22-16.42,3.72-30.9,10.51-43.45,6.79-12.55,16.23-22.27,28.34-29.17,12.11-6.89,26.01-10.34,41.7-10.34,14.08,0,26.57,3.23,37.48,9.69,10.91,6.46,19.86,15.96,26.87,28.51l-20.36,17.18c-5.84-8.75-12.48-15.39-19.92-19.92-7.44-4.52-15.47-6.79-24.08-6.79-9.19,0-17.33,2.26-24.41,6.79-7.08,4.52-12.64,10.89-16.69,19.1-4.05,8.21-6.15,17.67-6.29,28.4,.15,10.73,2.22,20.19,6.24,28.4,4.01,8.21,9.58,14.57,16.69,19.1,7.11,4.52,15.27,6.79,24.46,6.79,8.61,0,16.63-2.24,24.08-6.73Z"/>
    <path class="cls-1" d="M1222.54,1274.97l-13.9-33.05h-59.21l-13.9,33.05h-35.46l70.59-157.92h16.2l72.23,157.92h-36.55Zm-61.83-59.75h36.66l-17.84-42.24h-.99l-17.84,42.24Z"/>
    <path class="cls-1" d="M1486.28,1117.05h33.05v157.92h-33.05l-71.46-102.98h-1.86v102.98h-33.05l.11-157.92h32.94l71.9,103.2h1.42v-103.2Z"/>
    <path class="cls-1" d="M1765.06,1136.74c13.46,13.13,20.19,32.47,20.19,58s-6.64,46.29-19.92,59.86c-13.28,13.57-32.83,20.36-58.66,20.36h-54.28l-.22-157.92h53.41c26.19,0,46.02,6.57,59.48,19.7Zm-24.41,96.8c7.7-8.79,11.55-21.72,11.55-38.8s-3.94-28.58-11.82-36.94c-7.88-8.35-19.48-12.53-34.8-12.53h-20.36v101.45h21.45c14.96,0,26.28-4.39,33.98-13.19Z"/>
    <path class="cls-1" d="M1913.72,1117.05h33.05v157.92h-33.05v-157.92Z"/>
    <path class="cls-1" d="M2192.51,1136.74c13.46,13.13,20.19,32.47,20.19,58s-6.64,46.29-19.92,59.86c-13.28,13.57-32.83,20.36-58.66,20.36h-54.28l-.22-157.92h53.41c26.19,0,46.02,6.57,59.48,19.7Zm-24.41,96.8c7.7-8.79,11.55-21.72,11.55-38.8s-3.94-28.58-11.82-36.94c-7.88-8.35-19.48-12.53-34.8-12.53h-20.36v101.45h21.45c14.96,0,26.28-4.39,33.98-13.19Z"/>
    <path class="cls-1" d="M2442.84,1274.97l-13.9-33.05h-59.21l-13.9,33.05h-35.46l70.59-157.92h16.2l72.23,157.92h-36.55Zm-61.83-59.75h36.66l-17.84-42.24h-.99l-17.84,42.24Z"/>
    <path class="cls-1" d="M2691.58,1117.16v28.24h-43.78l-.11,129.58h-33.16l.22-129.58h-44.1v-28.24h120.93Z"/>
    <path class="cls-1" d="M2844.51,1268.62c-12.29-6.93-21.82-16.67-28.56-29.22-6.75-12.55-10.12-27.07-10.12-43.56s3.37-30.88,10.12-43.39c6.75-12.51,16.27-22.22,28.56-29.11,12.29-6.89,26.47-10.34,42.52-10.34s30.08,3.45,42.3,10.34c12.22,6.89,21.71,16.6,28.45,29.11,6.75,12.51,10.12,26.98,10.12,43.39s-3.36,31.01-10.07,43.56c-6.71,12.55-16.2,22.29-28.45,29.22-12.26,6.93-26.37,10.4-42.35,10.4s-30.22-3.47-42.52-10.4Zm67.58-24.68c7.22-4.56,12.82-11,16.8-19.32,3.98-8.32,5.96-17.91,5.96-28.78s-1.99-20.32-5.96-28.56c-3.98-8.24-9.58-14.65-16.8-19.21-7.22-4.56-15.58-6.84-25.06-6.84s-17.97,2.28-25.23,6.84c-7.26,4.56-12.9,10.96-16.91,19.21-4.01,8.25-6.02,17.77-6.02,28.56s2.01,20.47,6.02,28.78c4.01,8.32,9.65,14.76,16.91,19.32,7.26,4.56,15.67,6.84,25.23,6.84s17.84-2.28,25.06-6.84Z"/>
    <path class="cls-1" d="M3474.87,1272.67c-11.71-3.35-21.21-8.13-28.51-14.34l12.37-24.51c6.64,4.52,14.88,8.26,24.73,11.22,9.85,2.95,18.86,4.43,27.03,4.43,8.68,0,15.38-1.51,20.08-4.54,4.71-3.03,7.06-6.95,7.06-11.76,0-3.87-1.35-7.17-4.05-9.9-2.7-2.74-6.29-5.12-10.78-7.17-4.49-2.04-11.07-4.67-19.75-7.88-15.83-5.84-27.63-12.86-35.4-21.07-7.77-8.21-11.66-18.77-11.66-31.68,0-8.68,2.13-16.21,6.4-22.6,4.27-6.38,10.4-11.27,18.39-14.66,7.99-3.39,17.46-5.09,28.4-5.09,6.93,0,14.43,.95,22.49,2.85,8.06,1.9,15.78,4.34,23.15,7.33v27.69c-5.98-2.85-12.6-5.16-19.86-6.95-7.26-1.79-14.25-2.68-20.96-2.68-8.54,0-15.14,1.35-19.81,4.05-4.67,2.7-7,6.79-7,12.26,0,3.65,1.26,6.91,3.78,9.79,2.52,2.88,6.15,5.58,10.89,8.1,4.74,2.52,10.98,5.27,18.71,8.26,12.04,4.67,21.54,9.34,28.51,14.01,6.97,4.67,11.96,9.78,14.99,15.32,3.03,5.55,4.54,12.08,4.54,19.59,0,8.17-2.41,15.69-7.22,22.54-4.82,6.86-11.6,12.31-20.36,16.36-8.75,4.05-18.75,6.07-29.99,6.07-12.4,0-24.46-1.68-36.17-5.03Z"/>
    <path class="cls-1" d="M3736.1,1117.05h33.05v157.92h-33.05v-157.92Z"/>
    <path class="cls-1" d="M4048.49,1117.05h33.05v157.92h-33.05l-71.46-102.98h-1.86v102.98h-33.05l.11-157.92h32.94l71.9,103.2h1.42v-103.2Z"/>
    <path class="cls-1" d="M4367.4,1136.74c13.46,13.13,20.19,32.47,20.19,58s-6.64,46.29-19.92,59.86c-13.28,13.57-32.83,20.36-58.66,20.36h-54.28l-.22-157.92h53.41c26.19,0,46.02,6.57,59.48,19.7Zm-24.41,96.8c7.7-8.79,11.55-21.72,11.55-38.8s-3.94-28.58-11.82-36.94c-7.88-8.35-19.48-12.53-34.8-12.53h-20.36v101.45h21.45c14.96,0,26.28-4.39,33.98-13.19Z"/>
    <path class="cls-1" d="M4657.85,1274.97l-13.9-33.05h-59.21l-13.9,33.05h-35.46l70.59-157.92h16.2l72.23,157.92h-36.55Zm-61.83-59.75h36.66l-17.84-42.24h-.98l-17.84,42.24Z"/>
    <path class="cls-1" d="M4946.82,1243.61c7.44-4.49,14.08-11.11,19.92-19.86l20.36,17.18c-6.93,12.48-15.85,21.94-26.76,28.4-10.91,6.46-23.44,9.69-37.59,9.69-15.69,0-29.59-3.45-41.7-10.34-12.11-6.89-21.56-16.62-28.34-29.17-6.79-12.55-10.29-27.03-10.51-43.45,.22-16.42,3.72-30.9,10.51-43.45,6.79-12.55,16.23-22.27,28.34-29.17,12.11-6.89,26.01-10.34,41.7-10.34,14.08,0,26.58,3.23,37.48,9.69,10.91,6.46,19.86,15.96,26.87,28.51l-20.36,17.18c-5.84-8.75-12.48-15.39-19.92-19.92-7.44-4.52-15.47-6.79-24.08-6.79-9.19,0-17.33,2.26-24.4,6.79-7.08,4.52-12.64,10.89-16.69,19.1-4.05,8.21-6.15,17.67-6.29,28.4,.15,10.73,2.22,20.19,6.24,28.4,4.01,8.21,9.58,14.57,16.69,19.1,7.11,4.52,15.27,6.79,24.46,6.79,8.61,0,16.64-2.24,24.08-6.73Z"/>
    <path class="cls-1" d="M5189.99,1268.62c-12.29-6.93-21.82-16.67-28.56-29.22-6.75-12.55-10.12-27.07-10.12-43.56s3.37-30.88,10.12-43.39c6.75-12.51,16.27-22.22,28.56-29.11,12.29-6.89,26.47-10.34,42.52-10.34s30.08,3.45,42.3,10.34c12.22,6.89,21.71,16.6,28.45,29.11,6.75,12.51,10.12,26.98,10.12,43.39s-3.36,31.01-10.07,43.56c-6.71,12.55-16.2,22.29-28.45,29.22-12.26,6.93-26.37,10.4-42.35,10.4s-30.22-3.47-42.52-10.4Zm67.58-24.68c7.22-4.56,12.82-11,16.8-19.32,3.98-8.32,5.96-17.91,5.96-28.78s-1.99-20.32-5.96-28.56c-3.98-8.24-9.58-14.65-16.8-19.21-7.22-4.56-15.58-6.84-25.06-6.84s-17.97,2.28-25.23,6.84c-7.26,4.56-12.9,10.96-16.91,19.21-4.01,8.25-6.02,17.77-6.02,28.56s2.01,20.47,6.02,28.78c4.01,8.32,9.65,14.76,16.91,19.32,7.26,4.56,15.67,6.84,25.23,6.84s17.84-2.28,25.06-6.84Z"/>
  </g>
  <circle class="cls-1" cx="5520.46" cy="1192.41" r="25.17"/>
  <circle class="cls-1" cx="665.41" cy="1192.41" r="25.17"/>
</svg>